<svg width="32" height="32" viewBox="0 0 32 32" fill="none" xmlns="http://www.w3.org/2000/svg">
  <!-- Background -->
  <rect width="32" height="32" rx="6" fill="#4F46E5"/>

  <!-- Ascending bars -->
  <rect x="6" y="18" width="4" height="10" rx="1" fill="white"/>
  <rect x="11" y="14" width="4" height="14" rx="1" fill="white"/>
  <rect x="16" y="10" width="4" height="18" rx="1" fill="white"/>

  <!-- Currency symbol overlay -->
  <circle cx="22" cy="12" r="6" fill="#10B981"/>
  <path d="M21 9.5h2c.8 0 1.5.7 1.5 1.5v0c0 .4-.3.8-.8.8H21M21.5 11.8h2c.4 0 .8.3.8.8v0c0 .4-.3.8-.8.8h-2M21.5 9v5" stroke="white" stroke-width="1.2" stroke-linecap="round" stroke-linejoin="round"/>
</svg>
